<?xml version="1.0" standalone="no"?>
<!DOCTYPE svg PUBLIC "-//W3C//DTD SVG 20010904//EN"
 "http://www.w3.org/TR/2001/REC-SVG-20010904/DTD/svg10.dtd">
<svg version="1.0" xmlns="http://www.w3.org/2000/svg"
 width="150.000000pt" height="150.000000pt" viewBox="0 0 150.000000 150.000000"
 preserveAspectRatio="xMidYMid meet">
<metadata>
Created by potrace 1.14, written by Peter Selinger 2001-2017
</metadata>
<g transform="translate(0.000000,150.000000) scale(0.100000,-0.100000)"
fill="#000000" stroke="none">
<path d="M0 750 l0 -750 433 1 c353 2 410 4 313 11 -79 6 -143 18 -190 34 -39
13 -61 22 -49 20 13 -2 26 0 29 6 3 5 12 7 20 4 16 -6 19 5 4 20 -5 5 -7 20
-3 32 5 19 11 22 42 20 24 -2 35 1 34 9 -2 7 4 10 12 7 18 -7 19 -26 3 -42 -9
-9 -8 -12 4 -12 9 0 20 5 23 10 4 6 11 8 16 4 6 -4 3 -14 -8 -27 -10 -11 -12
-17 -5 -13 8 5 21 1 32 -9 10 -9 24 -14 30 -10 15 9 2 25 -15 18 -8 -3 -15 0
-15 7 0 6 9 14 20 17 11 3 18 8 15 12 -2 4 12 13 31 20 18 7 34 19 34 27 0 9
5 12 12 8 7 -4 40 -9 75 -10 49 -2 63 1 63 12 0 8 7 14 15 14 8 0 15 9 15 20
0 11 -4 20 -10 20 -5 0 -10 7 -10 15 0 17 16 20 25 5 9 -14 25 -12 25 3 0 8
12 19 26 26 15 6 24 15 20 18 -8 9 45 43 56 37 5 -3 4 -12 -3 -20 -9 -11 -8
-14 6 -14 12 0 16 6 12 20 -3 11 2 25 11 32 12 10 14 10 8 1 -4 -8 -1 -13 8
-13 10 0 13 -6 10 -15 -4 -8 -3 -15 1 -15 16 0 65 42 65 56 0 8 5 14 12 14 6
0 8 3 5 6 -4 4 8 14 26 23 21 10 33 25 35 41 2 13 15 37 28 53 26 31 30 47 13
47 -5 0 -7 -4 -4 -10 3 -5 1 -10 -4 -10 -15 0 -14 12 3 35 13 18 14 17 21 -13
7 -35 20 -39 48 -18 12 9 14 16 8 21 -6 3 -11 14 -10 23 0 14 2 14 6 2 3 -8
11 -20 18 -25 19 -15 -6 -82 -94 -249 -88 -170 -153 -235 -281 -284 l-55 -21
243 0 242 -1 0 750 0 750 -750 0 -750 0 0 -750z m890 270 c0 -5 -8 -10 -17
-10 -15 0 -16 2 -3 10 19 12 20 12 20 0z m-133 -32 c-3 -8 -6 -5 -6 6 -1 11 2
17 5 13 3 -3 4 -12 1 -19z m153 -3 c0 -21 -28 -31 -43 -16 -9 9 -8 11 7 5 16
-6 18 -4 13 9 -4 11 -1 17 8 17 8 0 15 -7 15 -15z m-102 -13 c15 12 16 11 3
-4 -7 -10 -11 -27 -8 -38 7 -26 -4 -26 -26 0 -18 22 -23 45 -7 35 6 -3 10 0
11 7 0 10 2 11 6 0 4 -10 8 -10 21 0z m-68 -32 c0 -5 6 -10 14 -10 8 0 16 -7
20 -15 3 -8 15 -15 26 -15 17 0 19 -4 12 -17 -5 -10 -10 -61 -11 -113 -1 -52
-4 -109 -7 -126 -5 -25 -1 -34 19 -47 24 -15 43 -67 26 -67 -5 0 -9 9 -9 20 0
11 -8 24 -17 27 -10 4 -26 16 -35 28 l-17 20 2 -22 c1 -12 3 -20 5 -18 6 6 32
-21 32 -33 0 -5 -8 -9 -17 -8 -20 1 -45 64 -33 81 14 19 18 69 8 97 l-10 28
-37 -31 c-20 -17 -44 -46 -53 -63 -21 -35 -19 -45 -22 101 -1 84 -10 111 -27
81 -5 -9 -17 -24 -25 -33 -9 -9 -14 -19 -10 -22 3 -3 1 -12 -5 -19 -8 -10 -4
-22 16 -49 15 -19 23 -35 19 -35 -5 0 -2 -5 6 -10 9 -6 10 -10 3 -10 -6 0 -20
13 -29 29 -10 17 -21 28 -26 25 -4 -3 -5 2 -2 11 5 11 2 14 -10 9 -9 -3 -16
-13 -16 -21 0 -15 -36 -53 -50 -53 -12 0 -46 46 -42 58 2 7 -2 10 -12 6 -9 -3
-16 -4 -16 -1 0 3 6 7 14 10 10 4 23 -7 36 -31 l22 -37 19 24 c10 13 19 29 19
36 0 7 7 18 15 25 13 11 13 14 -2 26 -10 7 -13 14 -8 14 6 0 5 3 -1 8 -11 7
-28 62 -19 62 9 0 36 -61 30 -69 -2 -5 2 -11 10 -15 9 -3 15 0 15 8 0 7 7 19
15 26 8 7 13 16 10 20 -7 11 32 43 44 35 7 -3 11 3 11 15 0 18 4 16 31 -15 24
-27 29 -39 20 -48 -11 -11 -12 -9 -15 15 0 6 -6 13 -12 15 -15 5 -24 -45 -14
-73 5 -13 6 -39 3 -60 -4 -27 -3 -35 5 -30 7 4 12 13 12 21 0 7 9 17 20 20 33
10 45 43 24 66 -9 10 -14 22 -9 27 4 4 10 2 12 -5 2 -6 18 -27 34 -45 17 -19
26 -24 21 -13 -6 12 -8 48 -6 81 5 57 3 62 -20 78 -26 17 -35 36 -16 36 6 0
10 -4 10 -10z m645 -178 c2 -67 1 -122 -3 -122 -4 0 -8 16 -10 35 -1 25 -13
48 -38 75 -20 22 -40 37 -44 35 -4 -3 -6 -37 -4 -77 3 -56 2 -67 -6 -50 -5 13
-8 28 -5 33 3 5 1 18 -5 29 -10 19 -12 18 -41 -15 -23 -26 -29 -40 -23 -57 6
-20 5 -21 -10 -9 -9 7 -16 20 -16 28 0 7 -7 16 -15 19 -8 4 -15 14 -15 24 0
15 -29 38 -34 28 -1 -2 -14 -18 -29 -37 -19 -23 -26 -40 -21 -54 5 -17 4 -18
-9 -6 -8 8 -13 17 -11 21 2 4 -5 13 -17 22 -12 8 -18 19 -15 25 4 5 -2 15 -13
20 -28 16 -33 14 -26 -9 8 -26 -1 -26 -15 0 -7 14 -8 32 -1 55 5 19 6 35 2 35
-18 0 -53 -40 -48 -54 11 -28 -18 -6 -34 26 -22 45 -40 48 -40 6 -1 -86 -3
-108 -10 -108 -4 0 -7 43 -6 95 1 52 4 95 7 95 6 0 18 -16 48 -62 l18 -27 32
28 c17 16 32 38 32 50 0 18 2 20 13 9 8 -7 13 -19 11 -28 -11 -50 -11 -88 0
-84 17 7 58 75 60 99 1 24 26 23 26 -1 0 -24 23 -64 37 -64 7 0 13 -4 13 -10
0 -5 4 -10 9 -10 12 0 54 68 54 86 0 20 3 18 28 -23 13 -21 26 -40 29 -43 4
-3 12 -14 19 -25 10 -17 11 -11 8 38 -4 68 6 82 23 31 8 -24 17 -34 26 -30 9
3 14 -1 14 -13 0 -10 6 -24 14 -30 11 -10 16 -8 21 8 3 12 4 25 0 30 -6 10 5
94 11 88 2 -2 6 -59 9 -125z m-998 68 c28 -57 32 -78 17 -90 -7 -7 -14 -21
-14 -31 0 -11 -4 -19 -10 -19 -14 0 -12 16 6 51 15 30 11 69 -7 69 -5 0 -9 9
-9 19 0 11 -4 23 -10 26 -5 3 -10 11 -10 16 0 14 22 -11 37 -41z m86 12 c-20
-17 -37 -51 -35 -64 1 -5 -2 -8 -8 -8 -6 0 -10 5 -10 10 0 26 62 108 68 90 2
-6 -5 -19 -15 -28z m-213 18 c-1 -14 -18 -31 -24 -22 -6 11 -85 15 -87 4 -1
-4 -2 -19 -3 -33 -2 -32 15 -29 56 9 l28 26 -13 -27 c-6 -15 -21 -30 -31 -33
-18 -6 -18 -8 -3 -19 9 -6 14 -15 10 -18 -3 -4 -1 -7 5 -7 7 0 12 -5 12 -12 0
-6 -13 0 -28 15 -31 30 -44 34 -36 12 4 -8 1 -15 -4 -15 -7 0 -11 25 -10 64
l1 64 64 -1 c34 -1 63 -4 63 -7z m31 -76 c2 -63 -1 -74 -10 -49 -5 11 -6 24
-3 30 3 5 5 26 3 45 -2 19 0 32 3 29 3 -3 6 -27 7 -55z m79 -48 c0 -3 -4 -8
-10 -11 -5 -3 -10 -1 -10 4 0 6 5 11 10 11 6 0 10 -2 10 -4z m-224 -28 c-1
-21 4 -23 47 -23 26 0 47 -3 47 -7 0 -5 9 -8 20 -8 18 0 25 10 21 33 0 4 3 7
9 7 6 0 10 -5 10 -11 0 -8 4 -8 14 0 8 7 17 8 20 3 3 -6 -5 -17 -19 -26 -14
-9 -25 -23 -25 -32 0 -8 -5 -12 -10 -9 -6 4 -8 10 -5 15 3 4 -27 8 -65 9 -50
1 -70 -3 -70 -12 0 -9 -3 -8 -9 2 -8 12 -6 33 5 69 6 19 11 14 10 -10z m827
-48 c-7 -28 -13 -25 -13 6 0 14 4 23 9 20 5 -3 7 -15 4 -26z m-277 -122 c4 -7
3 -8 -4 -4 -8 5 -12 0 -12 -13 0 -12 5 -21 11 -21 5 0 7 -4 4 -10 -9 -15 -25
-12 -25 6 0 8 -4 12 -10 9 -11 -7 -14 28 -3 38 10 11 31 8 39 -5z m111 -40
c-3 -7 -5 -2 -5 12 0 14 2 19 5 13 2 -7 2 -19 0 -25z m191 -104 c3 -16 1 -16
-7 -4 -8 11 -11 12 -11 2 0 -7 -4 -11 -10 -7 -12 8 0 37 14 32 6 -2 12 -12 14
-23z m-41 -60 c-3 -3 -12 -4 -19 -1 -8 3 -5 6 6 6 11 1 17 -2 13 -5z m-83 -32
c2 -4 -4 -8 -14 -8 -10 0 -16 4 -14 8 3 4 9 8 14 8 5 0 11 -4 14 -8z m136 -6
c0 -11 -19 -15 -25 -6 -3 5 1 10 9 10 9 0 16 -2 16 -4z m-56 -71 c-4 -8 -11
-12 -16 -9 -6 4 -5 10 3 15 19 12 19 11 13 -6z m-89 -35 c-3 -5 -11 -10 -16
-10 -6 0 -7 5 -4 10 3 6 11 10 16 10 6 0 7 -4 4 -10z m-70 -20 c-3 -5 -12 -10
-18 -10 -7 0 -6 4 3 10 19 12 23 12 15 0z m-258 -16 c-3 -3 -12 -4 -19 -1 -8
3 -5 6 6 6 11 1 17 -2 13 -5z m-18 -36 l24 -18 -34 1 c-42 1 -117 27 -81 28
12 1 22 5 22 10 0 13 41 1 69 -21z"/>
<path d="M1044 805 c-3 -14 -15 -30 -25 -36 -18 -9 -18 -11 -2 -37 35 -54 39
-54 67 -12 26 40 26 40 6 57 -11 10 -20 23 -20 30 0 24 -20 23 -26 -2z"/>
<path d="M1183 812 c-3 -12 -9 -19 -14 -16 -5 3 -6 -2 -3 -10 4 -9 1 -16 -6
-16 -18 0 -4 -60 17 -75 15 -11 21 -8 40 20 13 19 23 36 23 39 0 3 -11 22 -25
43 -24 34 -26 35 -32 15z"/>
<path d="M1078 273 c7 -3 16 -2 19 1 4 3 -2 6 -13 5 -11 0 -14 -3 -6 -6z"/>
<path d="M845 141 c-6 -11 9 -23 19 -14 9 9 7 23 -3 23 -6 0 -12 -4 -16 -9z"/>
<path d="M567 124 c-8 -8 1 -24 14 -24 5 0 9 7 9 15 0 15 -12 20 -23 9z"/>
<path d="M776 121 c-6 -9 35 -24 43 -15 6 5 -18 24 -31 24 -4 0 -9 -4 -12 -9z"/>
<path d="M605 99 c-4 -6 -5 -13 -2 -16 7 -7 27 6 27 18 0 12 -17 12 -25 -2z"/>
</g>
</svg>
